<svg xmlns="http://www.w3.org/2000/svg" viewBox="0 0 64 64">
  <!-- MarketVerse mark, adaptive favicon: light tabs get the ink variant,
       dark tabs the white variant. Keep in sync with BrandMark and
       scripts/generate-brand-assets.mjs. -->
  <style>
    .tail{fill:url(#td)}
    .a{fill:#0a0b1e}.b{fill:#4a4956}.c{fill:#6b6a78}
    .bag{fill:#0a0b1e;stroke:none}
    .handle{stroke:#0a0b1e}
    @media (prefers-color-scheme: dark){
      .tail{fill:url(#tw)}
      .a{fill:#f2eee7}.b{fill:#c9c7d0}.c{fill:#a5a3b0}
      .bag{stroke:#f2eee7;stroke-width:1.5}
      .handle{stroke:#f2eee7}
    }
  </style>
  <defs>
    <linearGradient id="tw" x1="0" y1="0" x2="1" y2="0">
      <stop offset="0" stop-color="#f2eee7" stop-opacity="0"/>
      <stop offset=".55" stop-color="#c9c7d0" stop-opacity=".5"/>
      <stop offset="1" stop-color="#f2eee7"/>
    </linearGradient>
    <linearGradient id="td" x1="0" y1="0" x2="1" y2="0">
      <stop offset="0" stop-color="#0a0b1e" stop-opacity="0"/>
      <stop offset=".55" stop-color="#4a4956" stop-opacity=".5"/>
      <stop offset="1" stop-color="#0a0b1e"/>
    </linearGradient>
  </defs>
  <path class="tail" d="M3 7 C20 8 34 12 44.2 17.8 L43.6 23.3 C32 18.5 17 12 3 7 Z"/>
  <circle class="a" cx="47" cy="20.5" r="4.2"/>
  <path class="bag" d="M20 30 L44 30 L47.3 46.8 Q48 50 44.5 50 L19.5 50 Q16 50 16.7 46.8 Z"/>
  <path class="handle" d="M27 30 v-2.8 a5 5 0 0 1 10 0 V30" fill="none" stroke-width="2.4" stroke-linecap="round"/>
  <path class="a" d="M10 11.2 Q10.7 13.3 12.8 14 Q10.7 14.7 10 16.8 Q9.3 14.7 7.2 14 Q9.3 13.3 10 11.2 Z"/>
  <path class="b" d="M55 10 Q55.5 11.5 57 12 Q55.5 12.5 55 14 Q54.5 12.5 53 12 Q54.5 11.5 55 10 Z" opacity=".9"/>
  <path class="a" d="M7 35.6 Q7.6 37.4 9.4 38 Q7.6 38.6 7 40.4 Q6.4 38.6 4.6 38 Q6.4 37.4 7 35.6 Z" opacity=".85"/>
  <path class="c" d="M57 40.2 Q57.45 41.55 58.8 42 Q57.45 42.45 57 43.8 Q56.55 42.45 55.2 42 Q56.55 41.55 57 40.2 Z" opacity=".85"/>
  <path class="b" d="M12 53.4 Q12.4 54.6 13.6 55 Q12.4 55.4 12 56.6 Q11.6 55.4 10.4 55 Q11.6 54.6 12 53.4 Z" opacity=".8"/>
  <circle class="a" cx="52" cy="31" r="0.9" opacity=".55"/>
  <circle class="c" cx="34" cy="57.5" r="1" opacity=".6"/>
</svg>
